HIERARCHY
ROOT Hips
{
	OFFSET 0.000000 0.000000 0.000000 
	CHANNELS 6 Xposition Yposition Zposition Yrotation Zrotation Xrotation 
	JOINT Lumbar
	{
		OFFSET 0.000000 0.000000 0.000000 
		CHANNELS 3 Zrotation Xrotation Yrotation
		JOINT Neck
		{
			OFFSET 0.000000 0.445665 0.000000 
			CHANNELS 3 Zrotation Xrotation Yrotation
			End Site
			{
				OFFSET 0.000000 0.227535 0.000000 
			}
		}
		JOINT RightShoulder
		{
			OFFSET 0.019635 0.377685 0.194865 
			CHANNELS 3 Zrotation Xrotation Yrotation
			JOINT RightElbow
			{
				OFFSET 0.000000 -0.243375 0.000000 
				CHANNELS 2 Zrotation Yrotation
				JOINT RightWrist
				{
					OFFSET 0.000000 -0.264825 0.000000 
					CHANNELS 2 Zrotation Xrotation
					End Site
					{
						OFFSET 0.006600 -0.176220 0.000990 
					}
				}
			}
		}
		JOINT LeftShoulder
		{
			OFFSET 0.019635 0.377685 -0.194865 
			CHANNELS 3 Zrotation Xrotation Yrotation
			JOINT LeftElbow
			{
				OFFSET 0.000000 -0.243375 0.000000 
				CHANNELS 2 Zrotation Yrotation
				JOINT LeftWrist
				{
					OFFSET 0.000000 -0.264825 0.000000 
					CHANNELS 2 Zrotation Xrotation
					End Site
					{
						OFFSET 0.006600 -0.176220 -0.000990 
					}
				}
			}
		}
	}
	JOINT RightHip
	{
		OFFSET 0.052140 -0.069960 0.075570 
		CHANNELS 3 Zrotation Xrotation Yrotation
		JOINT RightKnee
		{
			OFFSET 0.000000 -0.402270 0.000000 
			CHANNELS 1 Zrotation
			JOINT RightAnkle
			{
				OFFSET 0.000000 -0.404085 0.000000 
				CHANNELS 3 Zrotation Xrotation Yrotation
				End Site
				{
					OFFSET 0.204105 -0.089430 0.008415 
				}
			}
		}
	}
	JOINT LeftHip
	{
		OFFSET 0.052140 -0.069960 -0.075570 
		CHANNELS 3 Zrotation Xrotation Yrotation
		JOINT LeftKnee
		{
			OFFSET 0.000000 -0.402270 0.000000 
			CHANNELS 1 Zrotation
			JOINT LeftAnkle
			{
				OFFSET 0.000000 -0.404085 0.000000 
				CHANNELS 3 Zrotation Xrotation Yrotation
				End Site
				{
					OFFSET 0.204105 -0.089430 -0.008415 
				}
			}
		}
	}
}
MOTION
Frames: 24
Frame Time: 0.02
-0.99575 -0.01708 -0.03423 -170.25869 -34.45433 0.44119 47.82863 -2.65291 -23.71617 6.96199 -16.27507 -2.11994 6.21066 -32.11344 -24.45451 133.61991 122.02797 19.27039 5.05235 11.67465 -1.77194 -53.4332 87.35929 -101.76816 30.68071 0.47079 26.53368 -4.11719 -5.82113 -53.11354 -7.65219 -1.31291 -2.93119 49.20472 -0.91668 19.06666 -33.05671 -6.47407 3.31704 3.82843
-1.00701 -0.01501 -0.03007 -168.58141 -34.21367 -0.15791 47.20387 -2.38306 -24.43621 6.92391 -16.26817 -2.11994 5.50625 -31.79441 -24.82707 133.73765 121.46542 19.04504 4.96653 12.04687 -1.69881 -53.36975 87.12574 -101.75384 30.22019 0.43982 29.04432 -4.1018 -6.82248 -54.79477 -7.48374 -1.55546 -3.03825 47.53719 -0.52274 18.90592 -32.0708 -6.38445 3.11956 3.7299
-1.01731 -0.01298 -0.02596 -166.66988 -33.98319 -0.83192 46.52643 -2.08027 -25.21842 6.79486 -16.1769 -2.11994 4.44793 -31.50005 -25.36277 133.88866 120.88408 18.74222 4.90429 12.29487 -1.78687 -53.27854 86.69783 -101.85302 29.51056 0.37375 31.32096 -4.04686 -8.12896 -55.09398 -7.26077 -1.79315 -3.14312 45.95129 0.04302 18.75194 -31.11886 -6.3022 2.88097 3.61296
-1.02802 -0.01097 -0.02185 -164.86067 -33.75861 -1.4625 45.88258 -1.79569 -25.95531 6.70456 -16.11634 -2.11994 3.56998 -31.20074 -25.81436 134.02023 120.31638 18.47422 4.83263 12.5822 -1.80419 -53.19989 86.37401 -101.90581 28.91515 0.32225 33.70583 -4.01197 -9.25542 -55.96362 -7.05637 -2.02296 -3.24429 44.35017 0.52262 18.56695 -30.16021 -6.21908 2.66441 3.50609
-1.0388 -0.00878 -0.01768 -163.06953 -33.48825 -2.13988 45.18899 -1.49314 -26.76564 6.62678 -16.08238 -2.11994 2.6078 -30.87012 -26.30666 134.17084 119.7204 18.20421 4.75411 12.94593 -1.80697 -53.11977 85.99175 -101.93947 28.30905 0.27534 36.10205 -3.96279 -10.56696 -57.08831 -6.83804 -2.27492 -3.35536 42.65705 1.03877 18.48694 -29.1601 -6.12675 2.434 3.39221
-1.04924 -0.00698 -0.01362 -161.18401 -33.31645 -2.7339 44.59051 -1.22218 -27.43675 6.50055 -15.97526 -2.11994 1.73995 -30.61232 -26.75189 134.2895 119.1823 17.9223 4.6962 13.11956 -1.87898 -53.03705 85.68185 -102.03784 27.6701 0.21134 38.41181 -3.93658 -11.5589 -57.35202 -6.65035 -2.48582 -3.44825 41.17524 1.51936 18.19651 -28.2561 -6.05503 2.22236 3.28841
-1.05901 -0.00616 -0.00986 -159.10543 -33.41064 -3.09059 44.26083 -1.0424 -27.71412 6.26471 -15.68555 -2.11994 1.19083 -30.55106 -27.04655 134.31024 118.79667 17.61478 4.68657 12.79707 -2.11361 -52.95066 85.61997 -102.29968 26.98253 0.10475 40.53573 -3.97723 -11.62468 -55.53919 -6.57136 -2.60479 -3.50204 40.25049 1.8511 17.30184 -27.60871 -6.03637 2.07484 3.21782
-1.0685 -0.00572 -0.00619 -156.93784 -33.60424 -3.3577 44.03128 -0.89689 -27.84804 5.98267 -15.3263 -2.11994 0.75364 -30.56257 -27.28526 134.2978 118.47178 17.30027 4.69721 12.28732 -2.41114 -52.86344 85.6361 -102.62008 26.27505 -0.0169 42.57745 -4.04393 -11.35149 -52.91296 -6.52916 -2.68206 -3.53729 39.53584 2.14233 16.20008 -27.05648 -6.0382 1.94693 3.1577
-1.07812 -0.00514 -0.00245 -154.80465 -33.7552 -3.65784 43.76126 -0.73892 -28.04361 5.72038 -15.00033 -2.11994 0.28418 -30.54061 -27.53706 134.30144 118.1293 16.9973 4.70108 11.86365 -2.67333 -52.77897 85.61527 -102.90529 25.58929 -0.12896 44.65849 -4.10385 -11.21203 -50.68062 -6.46868 -2.76821 -3.57556 38.73017 2.4572 15.20974 -26.46314 -6.03202 1.80894 3.09237
-1.08769 -0.00443 0.00117 -152.68983 -33.89681 -3.99377 43.46731 -0.56649 -28.2562 5.46033 -14.66365 -2.11994 -0.2745 -30.52149 -27.84569 134.30209 117.74879 16.65727 4.69694 11.43127 -2.96914 -52.68351 85.59525 -103.23098 24.83982 -0.25404 46.72872 -4.14214 -11.16892 -48.29563 -6.41124 -2.896 -3.63603 37.91192 2.75575 14.14924 -25.86664 -6.02138 1.67563 3.02888
-1.09732 -0.00409 0.00502 -150.51742 -34.08007 -4.2321 43.24858 -0.43286 -28.39862 5.18565 -14.33458 -2.11994 -0.61817 -30.51294 -28.02168 134.3006 117.45593 16.39252 4.71211 10.97454 -3.20829 -52.61108 85.59324 -103.48446 24.22339 -0.35488 48.79827 -4.23071 -10.84085 -46.05638 -6.35815 -2.92771 -3.64635 37.16442 3.07681 13.18206 -25.29294 -6.02387 1.5363 2.96358
-1.1071 -0.00467 0.00941 -148.21916 -34.36528 -4.22887 43.20643 -0.39746 -28.38086 4.88408 -14.03809 -2.11994 -0.37601 -30.51971 -27.83443 134.30154 117.4462 16.34927 4.79244 10.49385 -3.27082 -52.60299 85.6338 -103.52653 23.9653 -0.38707 50.94059 -4.46492 -9.80714 -44.39889 -6.30074 -2.7019 -3.51969 36.59703 3.46654 12.55433 -24.80857 -6.06008 1.37996 2.89286
-1.11697 -0.00561 0.01405 -145.86482 -34.68683 -4.12916 43.2382 -0.40018 -28.29752 4.56969 -13.75308 -2.11994 0.07712 -30.53335 -27.51669 134.30125 117.5136 16.38054 4.8888 9.9964 -3.27429 -52.6182 85.68856 -103.49311 23.84572 -0.39383 53.0742 -4.74656 -8.49881 -42.92693 -6.24818 -2.38154 -3.34388 36.08628 3.88079 12.0218 -24.33355 -6.10457 1.21045 2.81696
-1.12685 -0.00639 0.01862 -143.53014 -34.98429 -4.06905 43.24059 -0.38596 -28.24474 4.25982 -13.46682 -2.11994 0.42225 -30.5417 -27.26505 134.30123 117.50738 16.36985 4.96601 9.50863 -3.3071 -52.62248 85.72991 -103.49184 23.67308 -0.41074 55.17942 -4.99812 -7.3136 -41.3896 -6.19863 -2.10592 -3.19258 35.52561 4.28425 11.42539 -23.82265 -6.14829 1.05168 2.74555
-1.1365 -0.00719 0.02299 -141.21775 -35.31716 -4.02309 43.22805 -0.37135 -28.18334 3.95267 -13.16139 -2.11994 0.82097 -30.5635 -26.98337 134.30134 117.66053 16.39164 5.09184 9.0047 -3.33153 -52.62796 85.80309 -103.50088 23.45761 -0.43402 57.42552 -5.28672 -6.11688 -39.74216 -6.12837 -1.82069 -3.03124 35.07496 4.68199 10.90905 -23.45227 -6.19533 0.89738 2.67656
-1.14668 -0.00803 0.02786 -138.84562 -35.58363 -3.92678 43.2636 -0.36609 -28.1268 3.63884 -12.89948 -2.11994 1.15835 -30.5558 -26.73335 134.30123 117.50627 16.36533 5.12272 8.53397 -3.35868 -52.63673 85.81251 -103.4709 23.36483 -0.43796 59.36804 -5.50889 -4.89204 -38.37999 -6.10184 -1.53441 -2.87967 34.40518 5.10163 10.25092 -22.78563 -6.21806 0.70044 2.58727
-1.15816 -0.0089 0.034 -136.334 -35.65729 -3.70845 43.40723 -0.37767 -28.09473 3.29829 -12.75566 -2.11994 1.26105 -30.48345 -26.60797 134.30138 116.422 16.17243 4.86242 8.1513 -3.40606 -52.6469 85.64112 -103.34185 23.57484 -0.39312 60.55322 -5.53626 -3.58183 -37.75671 -6.19518 -1.26166 -2.76483 33.1236 5.54493 9.18183 -21.34089 -6.34331 0.65582 2.56677
-1.17019 -0.00978 0.04066 -133.76302 -35.66254 -3.44484 43.59738 -0.39693 -28.07135 2.95405 -12.65527 -2.11994 1.29675 -30.37766 -26.51817 134.30117 115.03587 15.93107 4.50992 7.80524 -3.45816 -52.65991 85.405 -103.17807 23.90391 -0.33 61.41885 -5.49405 -2.26765 -37.41881 -6.33181 -0.99287 -2.66218 31.619 6.01557 7.96738 -19.59231 -6.41752 0.52623 2.5063
-1.18206 -0.01065 0.04713 -131.21133 -35.69888 -3.20626 43.77018 -0.41255 -28.04812 2.61892 -12.53517 -2.11994 1.37159 -30.27433 -26.40896 134.30122 113.8299 15.72267 4.21679 7.44819 -3.50896 -52.67295 85.19886 -103.03581 24.18019 -0.27613 62.37957 -5.48457 -1.00713 -36.957 -6.44867 -0.7265 -2.55539 30.20843 6.49388 6.81759 -17.95083 -6.39494 0.25103 2.37866
-1.19357 -0.01158 0.05343 -128.68789 -35.73628 -2.94392 43.92995 -0.43097 -28.00564 2.25099 -12.41619 -2.11994 1.41723 -30.22385 -26.3091 134.3018 112.44988 15.47243 3.85321 7.06573 -3.55439 -52.68137 84.99058 -102.86508 24.45636 -0.21709 63.55174 -5.47582 0.47877 -36.47746 -6.56743 -0.43775 -2.44042 28.8233 6.88741 5.67561 -16.4282 -6.85506 0.72271 2.59704
-1.20595 -0.01237 0.06019 -126.09498 -35.75506 -2.72351 44.12651 -0.44385 -28.00563 1.95185 -12.30395 -2.11994 1.50492 -30.05674 -26.19959 134.29994 111.35386 15.29466 3.61084 6.74622 -3.6126 -52.69959 84.77156 -102.74848 24.75842 -0.1652 64.20754 -5.44374 1.49675 -36.09938 -6.69081 -0.19933 -2.34669 27.34094 7.46469 4.48322 -14.60119 -6.32784 -0.34308 2.10297
-1.22069 -0.01285 0.06809 -123.30192 -35.73592 -2.61346 44.41605 -0.44831 -28.12585 1.83374 -12.20924 -2.11994 1.72465 -29.56289 -26.05843 134.30287 111.16927 15.34812 3.75608 6.58268 -3.70741 -52.74587 84.53586 -102.77159 25.10944 -0.13401 63.51603 -5.40518 1.18041 -35.93911 -6.83085 -0.08616 -2.30321 25.56448 8.53289 3.17484 -11.87814 -2.82726 -5.95549 -0.49791
-1.23628 -0.01317 0.07642 -120.44561 -35.70069 -2.55028 44.73986 -0.44535 -28.28767 1.78683 -12.11807 -2.11994 1.98793 -28.95531 -25.90644 134.30162 111.27316 15.4727 4.02152 6.48299 -3.81457 -52.8015 84.29236 -102.85378 25.48049 -0.11136 62.31546 -5.33855 0.39719 -35.86801 -6.97159 -0.0261 -2.28184 23.71362 9.78569 1.82361 -8.88544 1.61634 -13.04759 -3.78443
-1.25143 -0.01351 0.08456 -117.63349 -35.67493 -2.47756 45.04608 -0.4395 -28.42772 1.71394 -12.01883 -2.11994 2.23061 -28.40802 -25.75746 134.2943 111.2063 15.55109 4.2109 6.36 -3.91494 -52.8516 84.05382 -102.92173 25.83733 -0.0873 61.34828 -5.2566 -0.14396 -35.75146 -7.10214 0.04909 -2.25429 21.94772 10.96166 0.49831 -6.09878 5.45866 -19.25681 -6.66179
